<mxfile host="app.diagrams.net" modified="2023-04-16T06:49:56.617Z" agent="Mozilla/5.0 (Windows NT 10.0; Win64; x64) AppleWebKit/537.36 (KHTML, like Gecko) Chrome/111.0.0.0 Safari/537.36" etag="oywK_E7wcZYG_ilrAOiP" version="21.1.8" type="github" pages="3">
  <diagram name="Page-1" id="ulExaYNeWJO9vZlM2AOD">
    <mxGraphModel dx="3296" dy="1783" grid="1" gridSize="10" guides="1" tooltips="1" connect="1" arrows="1" fold="1" page="1" pageScale="1" pageWidth="850" pageHeight="1100" math="0" shadow="0">
      <root>
        <mxCell id="0" />
        <mxCell id="1" parent="0" />
        <mxCell id="eXuaTyJAbWY_H0V2AS7y-1" value="Post" style="swimlane;fontStyle=0;childLayout=stackLayout;horizontal=1;startSize=30;horizontalStack=0;resizeParent=1;resizeParentMax=0;resizeLast=0;collapsible=1;marginBottom=0;whiteSpace=wrap;html=1;" parent="1" vertex="1">
          <mxGeometry x="-400" y="270" width="140" height="120" as="geometry" />
        </mxCell>
        <mxCell id="eXuaTyJAbWY_H0V2AS7y-2" value="id" style="text;strokeColor=none;fillColor=none;align=left;verticalAlign=middle;spacingLeft=4;spacingRight=4;overflow=hidden;points=[[0,0.5],[1,0.5]];portConstraint=eastwest;rotatable=0;whiteSpace=wrap;html=1;" parent="eXuaTyJAbWY_H0V2AS7y-1" vertex="1">
          <mxGeometry y="30" width="140" height="30" as="geometry" />
        </mxCell>
        <mxCell id="eXuaTyJAbWY_H0V2AS7y-3" value="stage" style="text;strokeColor=none;fillColor=none;align=left;verticalAlign=middle;spacingLeft=4;spacingRight=4;overflow=hidden;points=[[0,0.5],[1,0.5]];portConstraint=eastwest;rotatable=0;whiteSpace=wrap;html=1;" parent="eXuaTyJAbWY_H0V2AS7y-1" vertex="1">
          <mxGeometry y="60" width="140" height="30" as="geometry" />
        </mxCell>
        <mxCell id="eXuaTyJAbWY_H0V2AS7y-4" value="created_time" style="text;strokeColor=none;fillColor=none;align=left;verticalAlign=middle;spacingLeft=4;spacingRight=4;overflow=hidden;points=[[0,0.5],[1,0.5]];portConstraint=eastwest;rotatable=0;whiteSpace=wrap;html=1;" parent="eXuaTyJAbWY_H0V2AS7y-1" vertex="1">
          <mxGeometry y="90" width="140" height="30" as="geometry" />
        </mxCell>
        <mxCell id="eXuaTyJAbWY_H0V2AS7y-5" value="Subject" style="swimlane;fontStyle=0;childLayout=stackLayout;horizontal=1;startSize=30;horizontalStack=0;resizeParent=1;resizeParentMax=0;resizeLast=0;collapsible=1;marginBottom=0;whiteSpace=wrap;html=1;" parent="1" vertex="1">
          <mxGeometry x="-1070" y="560" width="140" height="120" as="geometry" />
        </mxCell>
        <mxCell id="eXuaTyJAbWY_H0V2AS7y-6" value="id" style="text;strokeColor=none;fillColor=none;align=left;verticalAlign=middle;spacingLeft=4;spacingRight=4;overflow=hidden;points=[[0,0.5],[1,0.5]];portConstraint=eastwest;rotatable=0;whiteSpace=wrap;html=1;" parent="eXuaTyJAbWY_H0V2AS7y-5" vertex="1">
          <mxGeometry y="30" width="140" height="30" as="geometry" />
        </mxCell>
        <mxCell id="eXuaTyJAbWY_H0V2AS7y-7" value="parent" style="text;strokeColor=none;fillColor=none;align=left;verticalAlign=middle;spacingLeft=4;spacingRight=4;overflow=hidden;points=[[0,0.5],[1,0.5]];portConstraint=eastwest;rotatable=0;whiteSpace=wrap;html=1;" parent="eXuaTyJAbWY_H0V2AS7y-5" vertex="1">
          <mxGeometry y="60" width="140" height="30" as="geometry" />
        </mxCell>
        <mxCell id="eXuaTyJAbWY_H0V2AS7y-8" value="name" style="text;strokeColor=none;fillColor=none;align=left;verticalAlign=middle;spacingLeft=4;spacingRight=4;overflow=hidden;points=[[0,0.5],[1,0.5]];portConstraint=eastwest;rotatable=0;whiteSpace=wrap;html=1;" parent="eXuaTyJAbWY_H0V2AS7y-5" vertex="1">
          <mxGeometry y="90" width="140" height="30" as="geometry" />
        </mxCell>
        <mxCell id="eXuaTyJAbWY_H0V2AS7y-9" value="Review" style="swimlane;fontStyle=0;childLayout=stackLayout;horizontal=1;startSize=30;horizontalStack=0;resizeParent=1;resizeParentMax=0;resizeLast=0;collapsible=1;marginBottom=0;whiteSpace=wrap;html=1;" parent="1" vertex="1">
          <mxGeometry x="-500" y="570.21" width="140" height="180" as="geometry" />
        </mxCell>
        <mxCell id="eXuaTyJAbWY_H0V2AS7y-10" value="id" style="text;strokeColor=none;fillColor=none;align=left;verticalAlign=middle;spacingLeft=4;spacingRight=4;overflow=hidden;points=[[0,0.5],[1,0.5]];portConstraint=eastwest;rotatable=0;whiteSpace=wrap;html=1;" parent="eXuaTyJAbWY_H0V2AS7y-9" vertex="1">
          <mxGeometry y="30" width="140" height="30" as="geometry" />
        </mxCell>
        <mxCell id="eXuaTyJAbWY_H0V2AS7y-11" value="post" style="text;strokeColor=none;fillColor=none;align=left;verticalAlign=middle;spacingLeft=4;spacingRight=4;overflow=hidden;points=[[0,0.5],[1,0.5]];portConstraint=eastwest;rotatable=0;whiteSpace=wrap;html=1;" parent="eXuaTyJAbWY_H0V2AS7y-9" vertex="1">
          <mxGeometry y="60" width="140" height="30" as="geometry" />
        </mxCell>
        <mxCell id="eXuaTyJAbWY_H0V2AS7y-12" value="user" style="text;strokeColor=none;fillColor=none;align=left;verticalAlign=middle;spacingLeft=4;spacingRight=4;overflow=hidden;points=[[0,0.5],[1,0.5]];portConstraint=eastwest;rotatable=0;whiteSpace=wrap;html=1;" parent="eXuaTyJAbWY_H0V2AS7y-9" vertex="1">
          <mxGeometry y="90" width="140" height="30" as="geometry" />
        </mxCell>
        <mxCell id="eXuaTyJAbWY_H0V2AS7y-13" value="created_time" style="text;strokeColor=none;fillColor=none;align=left;verticalAlign=middle;spacingLeft=4;spacingRight=4;overflow=hidden;points=[[0,0.5],[1,0.5]];portConstraint=eastwest;rotatable=0;whiteSpace=wrap;html=1;" parent="eXuaTyJAbWY_H0V2AS7y-9" vertex="1">
          <mxGeometry y="120" width="140" height="30" as="geometry" />
        </mxCell>
        <mxCell id="eXuaTyJAbWY_H0V2AS7y-14" value="content" style="text;strokeColor=none;fillColor=none;align=left;verticalAlign=middle;spacingLeft=4;spacingRight=4;overflow=hidden;points=[[0,0.5],[1,0.5]];portConstraint=eastwest;rotatable=0;whiteSpace=wrap;html=1;" parent="eXuaTyJAbWY_H0V2AS7y-9" vertex="1">
          <mxGeometry y="150" width="140" height="30" as="geometry" />
        </mxCell>
        <mxCell id="eXuaTyJAbWY_H0V2AS7y-15" value="TimeRange" style="swimlane;fontStyle=0;childLayout=stackLayout;horizontal=1;startSize=30;horizontalStack=0;resizeParent=1;resizeParentMax=0;resizeLast=0;collapsible=1;marginBottom=0;whiteSpace=wrap;html=1;" parent="1" vertex="1">
          <mxGeometry x="-240" y="560" width="140" height="150" as="geometry" />
        </mxCell>
        <mxCell id="eXuaTyJAbWY_H0V2AS7y-16" value="id" style="text;strokeColor=none;fillColor=none;align=left;verticalAlign=middle;spacingLeft=4;spacingRight=4;overflow=hidden;points=[[0,0.5],[1,0.5]];portConstraint=eastwest;rotatable=0;whiteSpace=wrap;html=1;" parent="eXuaTyJAbWY_H0V2AS7y-15" vertex="1">
          <mxGeometry y="30" width="140" height="30" as="geometry" />
        </mxCell>
        <mxCell id="eXuaTyJAbWY_H0V2AS7y-17" value="begin" style="text;strokeColor=none;fillColor=none;align=left;verticalAlign=middle;spacingLeft=4;spacingRight=4;overflow=hidden;points=[[0,0.5],[1,0.5]];portConstraint=eastwest;rotatable=0;whiteSpace=wrap;html=1;" parent="eXuaTyJAbWY_H0V2AS7y-15" vertex="1">
          <mxGeometry y="60" width="140" height="30" as="geometry" />
        </mxCell>
        <mxCell id="eXuaTyJAbWY_H0V2AS7y-18" value="date" style="text;strokeColor=none;fillColor=none;align=left;verticalAlign=middle;spacingLeft=4;spacingRight=4;overflow=hidden;points=[[0,0.5],[1,0.5]];portConstraint=eastwest;rotatable=0;whiteSpace=wrap;html=1;" parent="eXuaTyJAbWY_H0V2AS7y-15" vertex="1">
          <mxGeometry y="90" width="140" height="30" as="geometry" />
        </mxCell>
        <mxCell id="eXuaTyJAbWY_H0V2AS7y-19" value="begin" style="text;strokeColor=none;fillColor=none;align=left;verticalAlign=middle;spacingLeft=4;spacingRight=4;overflow=hidden;points=[[0,0.5],[1,0.5]];portConstraint=eastwest;rotatable=0;whiteSpace=wrap;html=1;" parent="eXuaTyJAbWY_H0V2AS7y-15" vertex="1">
          <mxGeometry y="120" width="140" height="30" as="geometry" />
        </mxCell>
        <mxCell id="eXuaTyJAbWY_H0V2AS7y-20" value="User" style="swimlane;fontStyle=0;childLayout=stackLayout;horizontal=1;startSize=30;horizontalStack=0;resizeParent=1;resizeParentMax=0;resizeLast=0;collapsible=1;marginBottom=0;whiteSpace=wrap;html=1;" parent="1" vertex="1">
          <mxGeometry x="-360" y="830" width="140" height="120" as="geometry" />
        </mxCell>
        <mxCell id="eXuaTyJAbWY_H0V2AS7y-21" value="id" style="text;strokeColor=none;fillColor=none;align=left;verticalAlign=middle;spacingLeft=4;spacingRight=4;overflow=hidden;points=[[0,0.5],[1,0.5]];portConstraint=eastwest;rotatable=0;whiteSpace=wrap;html=1;" parent="eXuaTyJAbWY_H0V2AS7y-20" vertex="1">
          <mxGeometry y="30" width="140" height="30" as="geometry" />
        </mxCell>
        <mxCell id="eXuaTyJAbWY_H0V2AS7y-22" value="active" style="text;strokeColor=none;fillColor=none;align=left;verticalAlign=middle;spacingLeft=4;spacingRight=4;overflow=hidden;points=[[0,0.5],[1,0.5]];portConstraint=eastwest;rotatable=0;whiteSpace=wrap;html=1;" parent="eXuaTyJAbWY_H0V2AS7y-20" vertex="1">
          <mxGeometry y="60" width="140" height="30" as="geometry" />
        </mxCell>
        <mxCell id="eXuaTyJAbWY_H0V2AS7y-23" value="Item 3" style="text;strokeColor=none;fillColor=none;align=left;verticalAlign=middle;spacingLeft=4;spacingRight=4;overflow=hidden;points=[[0,0.5],[1,0.5]];portConstraint=eastwest;rotatable=0;whiteSpace=wrap;html=1;" parent="eXuaTyJAbWY_H0V2AS7y-20" vertex="1">
          <mxGeometry y="90" width="140" height="30" as="geometry" />
        </mxCell>
        <mxCell id="eXuaTyJAbWY_H0V2AS7y-24" value="Cert" style="swimlane;fontStyle=0;childLayout=stackLayout;horizontal=1;startSize=30;horizontalStack=0;resizeParent=1;resizeParentMax=0;resizeLast=0;collapsible=1;marginBottom=0;whiteSpace=wrap;html=1;" parent="1" vertex="1">
          <mxGeometry x="-740" y="1050" width="140" height="120" as="geometry" />
        </mxCell>
        <mxCell id="eXuaTyJAbWY_H0V2AS7y-25" value="id" style="text;strokeColor=none;fillColor=none;align=left;verticalAlign=middle;spacingLeft=4;spacingRight=4;overflow=hidden;points=[[0,0.5],[1,0.5]];portConstraint=eastwest;rotatable=0;whiteSpace=wrap;html=1;" parent="eXuaTyJAbWY_H0V2AS7y-24" vertex="1">
          <mxGeometry y="30" width="140" height="30" as="geometry" />
        </mxCell>
        <mxCell id="eXuaTyJAbWY_H0V2AS7y-26" value="type" style="text;strokeColor=none;fillColor=none;align=left;verticalAlign=middle;spacingLeft=4;spacingRight=4;overflow=hidden;points=[[0,0.5],[1,0.5]];portConstraint=eastwest;rotatable=0;whiteSpace=wrap;html=1;" parent="eXuaTyJAbWY_H0V2AS7y-24" vertex="1">
          <mxGeometry y="60" width="140" height="30" as="geometry" />
        </mxCell>
        <mxCell id="eXuaTyJAbWY_H0V2AS7y-27" value="Item 3" style="text;strokeColor=none;fillColor=none;align=left;verticalAlign=middle;spacingLeft=4;spacingRight=4;overflow=hidden;points=[[0,0.5],[1,0.5]];portConstraint=eastwest;rotatable=0;whiteSpace=wrap;html=1;" parent="eXuaTyJAbWY_H0V2AS7y-24" vertex="1">
          <mxGeometry y="90" width="140" height="30" as="geometry" />
        </mxCell>
        <mxCell id="eXuaTyJAbWY_H0V2AS7y-28" value="Profile" style="swimlane;fontStyle=0;childLayout=stackLayout;horizontal=1;startSize=30;horizontalStack=0;resizeParent=1;resizeParentMax=0;resizeLast=0;collapsible=1;marginBottom=0;whiteSpace=wrap;html=1;" parent="1" vertex="1">
          <mxGeometry x="-500" y="1050" width="140" height="120" as="geometry" />
        </mxCell>
        <mxCell id="eXuaTyJAbWY_H0V2AS7y-29" value="Item 1" style="text;strokeColor=none;fillColor=none;align=left;verticalAlign=middle;spacingLeft=4;spacingRight=4;overflow=hidden;points=[[0,0.5],[1,0.5]];portConstraint=eastwest;rotatable=0;whiteSpace=wrap;html=1;" parent="eXuaTyJAbWY_H0V2AS7y-28" vertex="1">
          <mxGeometry y="30" width="140" height="30" as="geometry" />
        </mxCell>
        <mxCell id="eXuaTyJAbWY_H0V2AS7y-30" value="Item 1" style="text;strokeColor=none;fillColor=none;align=left;verticalAlign=middle;spacingLeft=4;spacingRight=4;overflow=hidden;points=[[0,0.5],[1,0.5]];portConstraint=eastwest;rotatable=0;whiteSpace=wrap;html=1;" parent="eXuaTyJAbWY_H0V2AS7y-28" vertex="1">
          <mxGeometry y="60" width="140" height="30" as="geometry" />
        </mxCell>
        <mxCell id="eXuaTyJAbWY_H0V2AS7y-31" value="Item 2" style="text;strokeColor=none;fillColor=none;align=left;verticalAlign=middle;spacingLeft=4;spacingRight=4;overflow=hidden;points=[[0,0.5],[1,0.5]];portConstraint=eastwest;rotatable=0;whiteSpace=wrap;html=1;" parent="eXuaTyJAbWY_H0V2AS7y-28" vertex="1">
          <mxGeometry y="90" width="140" height="30" as="geometry" />
        </mxCell>
        <mxCell id="eXuaTyJAbWY_H0V2AS7y-32" value="" style="shape=link;html=1;rounded=0;exitX=0.522;exitY=1.116;exitDx=0;exitDy=0;entryX=0.5;entryY=0;entryDx=0;entryDy=0;exitPerimeter=0;" parent="1" source="eXuaTyJAbWY_H0V2AS7y-23" target="eXuaTyJAbWY_H0V2AS7y-28" edge="1">
          <mxGeometry relative="1" as="geometry">
            <mxPoint x="560" y="600.21" as="sourcePoint" />
            <mxPoint x="720" y="600.21" as="targetPoint" />
          </mxGeometry>
        </mxCell>
        <mxCell id="eXuaTyJAbWY_H0V2AS7y-33" value="1" style="resizable=0;html=1;align=right;verticalAlign=bottom;" parent="eXuaTyJAbWY_H0V2AS7y-32" connectable="0" vertex="1">
          <mxGeometry x="1" relative="1" as="geometry" />
        </mxCell>
        <mxCell id="eXuaTyJAbWY_H0V2AS7y-34" value="" style="shape=link;html=1;rounded=0;entryX=0.502;entryY=1.13;entryDx=0;entryDy=0;entryPerimeter=0;" parent="1" target="eXuaTyJAbWY_H0V2AS7y-60" edge="1">
          <mxGeometry relative="1" as="geometry">
            <mxPoint x="-360" y="830" as="sourcePoint" />
            <mxPoint x="690" y="490.00000000000006" as="targetPoint" />
          </mxGeometry>
        </mxCell>
        <mxCell id="eXuaTyJAbWY_H0V2AS7y-35" value="N" style="resizable=0;html=1;align=right;verticalAlign=bottom;" parent="eXuaTyJAbWY_H0V2AS7y-34" connectable="0" vertex="1">
          <mxGeometry x="1" relative="1" as="geometry" />
        </mxCell>
        <mxCell id="eXuaTyJAbWY_H0V2AS7y-36" value="" style="shape=link;html=1;rounded=0;entryX=0.5;entryY=0;entryDx=0;entryDy=0;exitX=0.506;exitY=0.993;exitDx=0;exitDy=0;exitPerimeter=0;" parent="1" source="eXuaTyJAbWY_H0V2AS7y-4" target="eXuaTyJAbWY_H0V2AS7y-20" edge="1">
          <mxGeometry relative="1" as="geometry">
            <mxPoint x="290" y="280" as="sourcePoint" />
            <mxPoint x="450" y="280" as="targetPoint" />
          </mxGeometry>
        </mxCell>
        <mxCell id="eXuaTyJAbWY_H0V2AS7y-37" value="M" style="resizable=0;html=1;align=left;verticalAlign=bottom;" parent="eXuaTyJAbWY_H0V2AS7y-36" connectable="0" vertex="1">
          <mxGeometry x="-1" relative="1" as="geometry" />
        </mxCell>
        <mxCell id="eXuaTyJAbWY_H0V2AS7y-38" value="N" style="resizable=0;html=1;align=right;verticalAlign=bottom;" parent="eXuaTyJAbWY_H0V2AS7y-36" connectable="0" vertex="1">
          <mxGeometry x="1" relative="1" as="geometry" />
        </mxCell>
        <mxCell id="eXuaTyJAbWY_H0V2AS7y-39" value="" style="shape=link;html=1;rounded=0;" parent="1" edge="1">
          <mxGeometry relative="1" as="geometry">
            <mxPoint x="-670" y="-20.49999999999997" as="sourcePoint" />
            <mxPoint x="-510" y="-20.49999999999997" as="targetPoint" />
          </mxGeometry>
        </mxCell>
        <mxCell id="eXuaTyJAbWY_H0V2AS7y-40" value="1" style="resizable=0;html=1;align=right;verticalAlign=bottom;" parent="eXuaTyJAbWY_H0V2AS7y-39" connectable="0" vertex="1">
          <mxGeometry x="1" relative="1" as="geometry" />
        </mxCell>
        <mxCell id="eXuaTyJAbWY_H0V2AS7y-41" value="" style="shape=link;html=1;rounded=0;exitX=0.506;exitY=1.119;exitDx=0;exitDy=0;exitPerimeter=0;entryX=0.5;entryY=0;entryDx=0;entryDy=0;" parent="1" source="eXuaTyJAbWY_H0V2AS7y-23" target="eXuaTyJAbWY_H0V2AS7y-24" edge="1">
          <mxGeometry relative="1" as="geometry">
            <mxPoint x="690" y="740.21" as="sourcePoint" />
            <mxPoint x="850" y="740.21" as="targetPoint" />
          </mxGeometry>
        </mxCell>
        <mxCell id="eXuaTyJAbWY_H0V2AS7y-42" value="N" style="resizable=0;html=1;align=right;verticalAlign=bottom;" parent="eXuaTyJAbWY_H0V2AS7y-41" connectable="0" vertex="1">
          <mxGeometry x="1" relative="1" as="geometry" />
        </mxCell>
        <mxCell id="eXuaTyJAbWY_H0V2AS7y-43" value="" style="shape=link;html=1;rounded=0;exitX=1;exitY=0;exitDx=0;exitDy=0;entryX=0.5;entryY=0.962;entryDx=0;entryDy=0;entryPerimeter=0;" parent="1" source="eXuaTyJAbWY_H0V2AS7y-20" target="eXuaTyJAbWY_H0V2AS7y-18" edge="1">
          <mxGeometry relative="1" as="geometry">
            <mxPoint x="475" y="540.21" as="sourcePoint" />
            <mxPoint x="140" y="700" as="targetPoint" />
          </mxGeometry>
        </mxCell>
        <mxCell id="eXuaTyJAbWY_H0V2AS7y-44" value="N" style="resizable=0;html=1;align=right;verticalAlign=bottom;" parent="eXuaTyJAbWY_H0V2AS7y-43" connectable="0" vertex="1">
          <mxGeometry x="1" relative="1" as="geometry" />
        </mxCell>
        <mxCell id="eXuaTyJAbWY_H0V2AS7y-45" value="" style="shape=link;html=1;rounded=0;entryX=0.5;entryY=0;entryDx=0;entryDy=0;exitX=0.506;exitY=0.993;exitDx=0;exitDy=0;exitPerimeter=0;" parent="1" edge="1">
          <mxGeometry relative="1" as="geometry">
            <mxPoint x="-464.1600000000001" y="-149.99999999999994" as="sourcePoint" />
            <mxPoint x="-465" y="0.2100000000000648" as="targetPoint" />
          </mxGeometry>
        </mxCell>
        <mxCell id="eXuaTyJAbWY_H0V2AS7y-46" value="M" style="resizable=0;html=1;align=left;verticalAlign=bottom;" parent="eXuaTyJAbWY_H0V2AS7y-45" connectable="0" vertex="1">
          <mxGeometry x="-1" relative="1" as="geometry" />
        </mxCell>
        <mxCell id="eXuaTyJAbWY_H0V2AS7y-47" value="N" style="resizable=0;html=1;align=right;verticalAlign=bottom;" parent="eXuaTyJAbWY_H0V2AS7y-45" connectable="0" vertex="1">
          <mxGeometry x="1" relative="1" as="geometry" />
        </mxCell>
        <mxCell id="eXuaTyJAbWY_H0V2AS7y-48" value="" style="shape=link;html=1;rounded=0;entryX=0.511;entryY=1.09;entryDx=0;entryDy=0;entryPerimeter=0;exitX=0;exitY=0;exitDx=0;exitDy=0;" parent="1" source="eXuaTyJAbWY_H0V2AS7y-20" target="eXuaTyJAbWY_H0V2AS7y-14" edge="1">
          <mxGeometry relative="1" as="geometry">
            <mxPoint x="250" y="330" as="sourcePoint" />
            <mxPoint x="410" y="330" as="targetPoint" />
          </mxGeometry>
        </mxCell>
        <mxCell id="eXuaTyJAbWY_H0V2AS7y-49" value="N" style="resizable=0;html=1;align=right;verticalAlign=bottom;" parent="eXuaTyJAbWY_H0V2AS7y-48" connectable="0" vertex="1">
          <mxGeometry x="1" relative="1" as="geometry" />
        </mxCell>
        <mxCell id="eXuaTyJAbWY_H0V2AS7y-50" value="" style="shape=link;html=1;rounded=0;entryX=0.5;entryY=0;entryDx=0;entryDy=0;" parent="1" target="eXuaTyJAbWY_H0V2AS7y-9" edge="1">
          <mxGeometry relative="1" as="geometry">
            <mxPoint x="-400" y="390" as="sourcePoint" />
            <mxPoint x="800" y="200" as="targetPoint" />
          </mxGeometry>
        </mxCell>
        <mxCell id="eXuaTyJAbWY_H0V2AS7y-51" value="N" style="resizable=0;html=1;align=right;verticalAlign=bottom;" parent="eXuaTyJAbWY_H0V2AS7y-50" connectable="0" vertex="1">
          <mxGeometry x="1" relative="1" as="geometry" />
        </mxCell>
        <mxCell id="eXuaTyJAbWY_H0V2AS7y-52" value="" style="shape=link;html=1;rounded=0;entryX=0.5;entryY=0;entryDx=0;entryDy=0;exitX=0.001;exitY=1.119;exitDx=0;exitDy=0;exitPerimeter=0;" parent="1" source="eXuaTyJAbWY_H0V2AS7y-4" target="eXuaTyJAbWY_H0V2AS7y-5" edge="1">
          <mxGeometry relative="1" as="geometry">
            <mxPoint x="640.8399999999999" y="210" as="sourcePoint" />
            <mxPoint x="640" y="360.21000000000004" as="targetPoint" />
          </mxGeometry>
        </mxCell>
        <mxCell id="eXuaTyJAbWY_H0V2AS7y-53" value="M" style="resizable=0;html=1;align=left;verticalAlign=bottom;" parent="eXuaTyJAbWY_H0V2AS7y-52" connectable="0" vertex="1">
          <mxGeometry x="-1" relative="1" as="geometry" />
        </mxCell>
        <mxCell id="eXuaTyJAbWY_H0V2AS7y-54" value="N" style="resizable=0;html=1;align=right;verticalAlign=bottom;" parent="eXuaTyJAbWY_H0V2AS7y-52" connectable="0" vertex="1">
          <mxGeometry x="1" relative="1" as="geometry" />
        </mxCell>
        <mxCell id="eXuaTyJAbWY_H0V2AS7y-55" value="" style="shape=link;html=1;rounded=0;entryX=0.5;entryY=0;entryDx=0;entryDy=0;exitX=1.007;exitY=1.148;exitDx=0;exitDy=0;exitPerimeter=0;" parent="1" source="eXuaTyJAbWY_H0V2AS7y-4" target="eXuaTyJAbWY_H0V2AS7y-15" edge="1">
          <mxGeometry relative="1" as="geometry">
            <mxPoint x="120" y="310" as="sourcePoint" />
            <mxPoint x="280" y="310" as="targetPoint" />
          </mxGeometry>
        </mxCell>
        <mxCell id="eXuaTyJAbWY_H0V2AS7y-56" value="N" style="resizable=0;html=1;align=right;verticalAlign=bottom;" parent="eXuaTyJAbWY_H0V2AS7y-55" connectable="0" vertex="1">
          <mxGeometry x="1" relative="1" as="geometry" />
        </mxCell>
        <mxCell id="eXuaTyJAbWY_H0V2AS7y-57" value="AppliedTeacher" style="swimlane;fontStyle=0;childLayout=stackLayout;horizontal=1;startSize=30;horizontalStack=0;resizeParent=1;resizeParentMax=0;resizeLast=0;collapsible=1;marginBottom=0;whiteSpace=wrap;html=1;" parent="1" vertex="1">
          <mxGeometry x="-770" y="570.21" width="140" height="120" as="geometry" />
        </mxCell>
        <mxCell id="eXuaTyJAbWY_H0V2AS7y-58" value="id" style="text;strokeColor=none;fillColor=none;align=left;verticalAlign=middle;spacingLeft=4;spacingRight=4;overflow=hidden;points=[[0,0.5],[1,0.5]];portConstraint=eastwest;rotatable=0;whiteSpace=wrap;html=1;" parent="eXuaTyJAbWY_H0V2AS7y-57" vertex="1">
          <mxGeometry y="30" width="140" height="30" as="geometry" />
        </mxCell>
        <mxCell id="eXuaTyJAbWY_H0V2AS7y-59" value="post_id" style="text;strokeColor=none;fillColor=none;align=left;verticalAlign=middle;spacingLeft=4;spacingRight=4;overflow=hidden;points=[[0,0.5],[1,0.5]];portConstraint=eastwest;rotatable=0;whiteSpace=wrap;html=1;" parent="eXuaTyJAbWY_H0V2AS7y-57" vertex="1">
          <mxGeometry y="60" width="140" height="30" as="geometry" />
        </mxCell>
        <mxCell id="eXuaTyJAbWY_H0V2AS7y-60" value="teacher_id" style="text;strokeColor=none;fillColor=none;align=left;verticalAlign=middle;spacingLeft=4;spacingRight=4;overflow=hidden;points=[[0,0.5],[1,0.5]];portConstraint=eastwest;rotatable=0;whiteSpace=wrap;html=1;" parent="eXuaTyJAbWY_H0V2AS7y-57" vertex="1">
          <mxGeometry y="90" width="140" height="30" as="geometry" />
        </mxCell>
        <mxCell id="eXuaTyJAbWY_H0V2AS7y-61" value="" style="shape=link;html=1;rounded=0;" parent="1" edge="1">
          <mxGeometry relative="1" as="geometry">
            <mxPoint x="-650" y="-119.99999999999989" as="sourcePoint" />
            <mxPoint x="-490" y="-119.99999999999989" as="targetPoint" />
          </mxGeometry>
        </mxCell>
        <mxCell id="eXuaTyJAbWY_H0V2AS7y-62" value="N" style="resizable=0;html=1;align=right;verticalAlign=bottom;" parent="eXuaTyJAbWY_H0V2AS7y-61" connectable="0" vertex="1">
          <mxGeometry x="1" relative="1" as="geometry" />
        </mxCell>
        <mxCell id="eXuaTyJAbWY_H0V2AS7y-63" value="" style="shape=link;html=1;rounded=0;exitX=0;exitY=1;exitDx=0;exitDy=0;" parent="1" source="eXuaTyJAbWY_H0V2AS7y-1" edge="1">
          <mxGeometry relative="1" as="geometry">
            <mxPoint x="70" y="410.0000000000001" as="sourcePoint" />
            <mxPoint x="-700" y="570" as="targetPoint" />
          </mxGeometry>
        </mxCell>
        <mxCell id="eXuaTyJAbWY_H0V2AS7y-64" value="N" style="resizable=0;html=1;align=right;verticalAlign=bottom;" parent="eXuaTyJAbWY_H0V2AS7y-63" connectable="0" vertex="1">
          <mxGeometry x="1" relative="1" as="geometry" />
        </mxCell>
        <mxCell id="eXuaTyJAbWY_H0V2AS7y-65" value="RequestTeaching" style="swimlane;fontStyle=0;childLayout=stackLayout;horizontal=1;startSize=30;horizontalStack=0;resizeParent=1;resizeParentMax=0;resizeLast=0;collapsible=1;marginBottom=0;whiteSpace=wrap;html=1;" parent="1" vertex="1">
          <mxGeometry x="90" y="555.21" width="140" height="150" as="geometry" />
        </mxCell>
        <mxCell id="eXuaTyJAbWY_H0V2AS7y-66" value="id" style="text;strokeColor=none;fillColor=none;align=left;verticalAlign=middle;spacingLeft=4;spacingRight=4;overflow=hidden;points=[[0,0.5],[1,0.5]];portConstraint=eastwest;rotatable=0;whiteSpace=wrap;html=1;" parent="eXuaTyJAbWY_H0V2AS7y-65" vertex="1">
          <mxGeometry y="30" width="140" height="30" as="geometry" />
        </mxCell>
        <mxCell id="eXuaTyJAbWY_H0V2AS7y-67" value="learner_id" style="text;strokeColor=none;fillColor=none;align=left;verticalAlign=middle;spacingLeft=4;spacingRight=4;overflow=hidden;points=[[0,0.5],[1,0.5]];portConstraint=eastwest;rotatable=0;whiteSpace=wrap;html=1;" parent="eXuaTyJAbWY_H0V2AS7y-65" vertex="1">
          <mxGeometry y="60" width="140" height="30" as="geometry" />
        </mxCell>
        <mxCell id="eXuaTyJAbWY_H0V2AS7y-68" value="teacher_id" style="text;strokeColor=none;fillColor=none;align=left;verticalAlign=middle;spacingLeft=4;spacingRight=4;overflow=hidden;points=[[0,0.5],[1,0.5]];portConstraint=eastwest;rotatable=0;whiteSpace=wrap;html=1;" parent="eXuaTyJAbWY_H0V2AS7y-65" vertex="1">
          <mxGeometry y="90" width="140" height="30" as="geometry" />
        </mxCell>
        <mxCell id="eXuaTyJAbWY_H0V2AS7y-69" value="post_id" style="text;strokeColor=none;fillColor=none;align=left;verticalAlign=middle;spacingLeft=4;spacingRight=4;overflow=hidden;points=[[0,0.5],[1,0.5]];portConstraint=eastwest;rotatable=0;whiteSpace=wrap;html=1;" parent="eXuaTyJAbWY_H0V2AS7y-65" vertex="1">
          <mxGeometry y="120" width="140" height="30" as="geometry" />
        </mxCell>
        <mxCell id="eXuaTyJAbWY_H0V2AS7y-70" value="" style="shape=link;html=1;rounded=0;entryX=1;entryY=0;entryDx=0;entryDy=0;exitX=0.478;exitY=1.154;exitDx=0;exitDy=0;exitPerimeter=0;" parent="1" source="eXuaTyJAbWY_H0V2AS7y-69" target="eXuaTyJAbWY_H0V2AS7y-20" edge="1">
          <mxGeometry relative="1" as="geometry">
            <mxPoint x="-9.159999999999854" y="390.0000000000001" as="sourcePoint" />
            <mxPoint x="-10" y="540.2100000000002" as="targetPoint" />
          </mxGeometry>
        </mxCell>
        <mxCell id="eXuaTyJAbWY_H0V2AS7y-71" value="M" style="resizable=0;html=1;align=left;verticalAlign=bottom;" parent="eXuaTyJAbWY_H0V2AS7y-70" connectable="0" vertex="1">
          <mxGeometry x="-1" relative="1" as="geometry" />
        </mxCell>
        <mxCell id="eXuaTyJAbWY_H0V2AS7y-72" value="N" style="resizable=0;html=1;align=right;verticalAlign=bottom;" parent="eXuaTyJAbWY_H0V2AS7y-70" connectable="0" vertex="1">
          <mxGeometry x="1" relative="1" as="geometry" />
        </mxCell>
        <mxCell id="eXuaTyJAbWY_H0V2AS7y-73" value="" style="shape=link;html=1;rounded=0;entryX=0.5;entryY=0;entryDx=0;entryDy=0;exitX=1.038;exitY=1.211;exitDx=0;exitDy=0;exitPerimeter=0;" parent="1" source="eXuaTyJAbWY_H0V2AS7y-4" target="eXuaTyJAbWY_H0V2AS7y-65" edge="1">
          <mxGeometry relative="1" as="geometry">
            <mxPoint x="-20" y="310" as="sourcePoint" />
            <mxPoint x="140" y="310" as="targetPoint" />
          </mxGeometry>
        </mxCell>
        <mxCell id="eXuaTyJAbWY_H0V2AS7y-74" value="1" style="resizable=0;html=1;align=right;verticalAlign=bottom;" parent="eXuaTyJAbWY_H0V2AS7y-73" connectable="0" vertex="1">
          <mxGeometry x="1" relative="1" as="geometry">
            <mxPoint y="-15" as="offset" />
          </mxGeometry>
        </mxCell>
        <mxCell id="eXuaTyJAbWY_H0V2AS7y-75" value="PostDetail" style="swimlane;fontStyle=0;childLayout=stackLayout;horizontal=1;startSize=30;horizontalStack=0;resizeParent=1;resizeParentMax=0;resizeLast=0;collapsible=1;marginBottom=0;whiteSpace=wrap;html=1;" parent="1" vertex="1">
          <mxGeometry x="-610" y="50" width="140" height="120" as="geometry" />
        </mxCell>
        <mxCell id="eXuaTyJAbWY_H0V2AS7y-76" value="id" style="text;strokeColor=none;fillColor=none;align=left;verticalAlign=middle;spacingLeft=4;spacingRight=4;overflow=hidden;points=[[0,0.5],[1,0.5]];portConstraint=eastwest;rotatable=0;whiteSpace=wrap;html=1;" parent="eXuaTyJAbWY_H0V2AS7y-75" vertex="1">
          <mxGeometry y="30" width="140" height="30" as="geometry" />
        </mxCell>
        <mxCell id="eXuaTyJAbWY_H0V2AS7y-77" value="Item 2" style="text;strokeColor=none;fillColor=none;align=left;verticalAlign=middle;spacingLeft=4;spacingRight=4;overflow=hidden;points=[[0,0.5],[1,0.5]];portConstraint=eastwest;rotatable=0;whiteSpace=wrap;html=1;" parent="eXuaTyJAbWY_H0V2AS7y-75" vertex="1">
          <mxGeometry y="60" width="140" height="30" as="geometry" />
        </mxCell>
        <mxCell id="eXuaTyJAbWY_H0V2AS7y-78" value="Item 3" style="text;strokeColor=none;fillColor=none;align=left;verticalAlign=middle;spacingLeft=4;spacingRight=4;overflow=hidden;points=[[0,0.5],[1,0.5]];portConstraint=eastwest;rotatable=0;whiteSpace=wrap;html=1;" parent="eXuaTyJAbWY_H0V2AS7y-75" vertex="1">
          <mxGeometry y="90" width="140" height="30" as="geometry" />
        </mxCell>
        <mxCell id="eXuaTyJAbWY_H0V2AS7y-79" value="" style="shape=link;html=1;rounded=0;entryX=0.509;entryY=0.989;entryDx=0;entryDy=0;entryPerimeter=0;" parent="1" target="eXuaTyJAbWY_H0V2AS7y-78" edge="1">
          <mxGeometry relative="1" as="geometry">
            <mxPoint x="-330" y="270" as="sourcePoint" />
            <mxPoint x="-150" y="130" as="targetPoint" />
          </mxGeometry>
        </mxCell>
        <mxCell id="eXuaTyJAbWY_H0V2AS7y-80" value="1" style="resizable=0;html=1;align=right;verticalAlign=bottom;" parent="eXuaTyJAbWY_H0V2AS7y-79" connectable="0" vertex="1">
          <mxGeometry x="1" relative="1" as="geometry" />
        </mxCell>
        <mxCell id="eXuaTyJAbWY_H0V2AS7y-81" value="learner" style="shape=umlActor;verticalLabelPosition=bottom;verticalAlign=top;html=1;outlineConnect=0;" parent="1" vertex="1">
          <mxGeometry x="70" y="1060" width="30" height="60" as="geometry" />
        </mxCell>
        <mxCell id="eXuaTyJAbWY_H0V2AS7y-82" value="teacher" style="shape=umlActor;verticalLabelPosition=bottom;verticalAlign=top;html=1;outlineConnect=0;" parent="1" vertex="1">
          <mxGeometry x="65" y="790" width="30" height="60" as="geometry" />
        </mxCell>
        <mxCell id="eXuaTyJAbWY_H0V2AS7y-83" value="" style="endArrow=classic;html=1;rounded=0;exitX=0.5;exitY=0;exitDx=0;exitDy=0;exitPerimeter=0;entryX=0.5;entryY=1;entryDx=0;entryDy=0;" parent="1" source="eXuaTyJAbWY_H0V2AS7y-81" target="eXuaTyJAbWY_H0V2AS7y-85" edge="1">
          <mxGeometry width="50" height="50" relative="1" as="geometry">
            <mxPoint x="170" y="970" as="sourcePoint" />
            <mxPoint x="220" y="920" as="targetPoint" />
          </mxGeometry>
        </mxCell>
        <mxCell id="eXuaTyJAbWY_H0V2AS7y-84" style="edgeStyle=orthogonalEdgeStyle;rounded=0;orthogonalLoop=1;jettySize=auto;html=1;exitX=0.5;exitY=0;exitDx=0;exitDy=0;" parent="1" source="eXuaTyJAbWY_H0V2AS7y-85" target="eXuaTyJAbWY_H0V2AS7y-82" edge="1">
          <mxGeometry relative="1" as="geometry" />
        </mxCell>
        <mxCell id="eXuaTyJAbWY_H0V2AS7y-85" value="teaching condition" style="rhombus;whiteSpace=wrap;html=1;" parent="1" vertex="1">
          <mxGeometry x="40" y="940" width="80" height="80" as="geometry" />
        </mxCell>
        <mxCell id="eXuaTyJAbWY_H0V2AS7y-86" value="" style="shape=link;html=1;rounded=0;entryX=0;entryY=0.5;entryDx=0;entryDy=0;exitX=0.483;exitY=0.903;exitDx=0;exitDy=0;exitPerimeter=0;" parent="1" source="eXuaTyJAbWY_H0V2AS7y-8" target="eXuaTyJAbWY_H0V2AS7y-22" edge="1">
          <mxGeometry relative="1" as="geometry">
            <mxPoint x="-899.1600000000001" y="780.0000000000001" as="sourcePoint" />
            <mxPoint x="-900" y="930.2100000000002" as="targetPoint" />
          </mxGeometry>
        </mxCell>
        <mxCell id="eXuaTyJAbWY_H0V2AS7y-87" value="M" style="resizable=0;html=1;align=left;verticalAlign=bottom;" parent="eXuaTyJAbWY_H0V2AS7y-86" connectable="0" vertex="1">
          <mxGeometry x="-1" relative="1" as="geometry" />
        </mxCell>
        <mxCell id="eXuaTyJAbWY_H0V2AS7y-88" value="N" style="resizable=0;html=1;align=right;verticalAlign=bottom;" parent="eXuaTyJAbWY_H0V2AS7y-86" connectable="0" vertex="1">
          <mxGeometry x="1" relative="1" as="geometry" />
        </mxCell>
        <mxCell id="eXuaTyJAbWY_H0V2AS7y-89" style="edgeStyle=orthogonalEdgeStyle;rounded=0;orthogonalLoop=1;jettySize=auto;html=1;exitX=1;exitY=0.5;exitDx=0;exitDy=0;entryX=0;entryY=0.5;entryDx=0;entryDy=0;" parent="1" source="eXuaTyJAbWY_H0V2AS7y-90" target="eXuaTyJAbWY_H0V2AS7y-92" edge="1">
          <mxGeometry relative="1" as="geometry" />
        </mxCell>
        <mxCell id="eXuaTyJAbWY_H0V2AS7y-90" value="Create Post" style="rounded=0;whiteSpace=wrap;html=1;" parent="1" vertex="1">
          <mxGeometry x="10" y="15" width="120" height="60" as="geometry" />
        </mxCell>
        <mxCell id="eXuaTyJAbWY_H0V2AS7y-91" style="edgeStyle=orthogonalEdgeStyle;rounded=0;orthogonalLoop=1;jettySize=auto;html=1;" parent="1" source="eXuaTyJAbWY_H0V2AS7y-92" target="eXuaTyJAbWY_H0V2AS7y-95" edge="1">
          <mxGeometry relative="1" as="geometry" />
        </mxCell>
        <mxCell id="eXuaTyJAbWY_H0V2AS7y-92" value="Teacher Applied" style="rounded=1;whiteSpace=wrap;html=1;" parent="1" vertex="1">
          <mxGeometry x="220" y="15" width="120" height="60" as="geometry" />
        </mxCell>
        <mxCell id="eXuaTyJAbWY_H0V2AS7y-93" value="many" style="text;html=1;align=center;verticalAlign=middle;resizable=0;points=[];autosize=1;strokeColor=none;fillColor=none;" parent="1" vertex="1">
          <mxGeometry x="255" y="-20" width="50" height="30" as="geometry" />
        </mxCell>
        <mxCell id="eXuaTyJAbWY_H0V2AS7y-94" value="" style="edgeStyle=orthogonalEdgeStyle;rounded=0;orthogonalLoop=1;jettySize=auto;html=1;" parent="1" source="eXuaTyJAbWY_H0V2AS7y-95" target="eXuaTyJAbWY_H0V2AS7y-97" edge="1">
          <mxGeometry relative="1" as="geometry" />
        </mxCell>
        <mxCell id="eXuaTyJAbWY_H0V2AS7y-95" value="Learner Choose teacher" style="rounded=0;whiteSpace=wrap;html=1;" parent="1" vertex="1">
          <mxGeometry x="415" y="15" width="120" height="60" as="geometry" />
        </mxCell>
        <mxCell id="eXuaTyJAbWY_H0V2AS7y-96" style="edgeStyle=orthogonalEdgeStyle;rounded=0;orthogonalLoop=1;jettySize=auto;html=1;" parent="1" source="eXuaTyJAbWY_H0V2AS7y-97" edge="1">
          <mxGeometry relative="1" as="geometry">
            <mxPoint x="675" y="135.00000000000023" as="targetPoint" />
          </mxGeometry>
        </mxCell>
        <mxCell id="eXuaTyJAbWY_H0V2AS7y-97" value="Notify to Teacher" style="rounded=0;whiteSpace=wrap;html=1;" parent="1" vertex="1">
          <mxGeometry x="615" y="15" width="120" height="60" as="geometry" />
        </mxCell>
        <mxCell id="eXuaTyJAbWY_H0V2AS7y-98" style="edgeStyle=orthogonalEdgeStyle;rounded=0;orthogonalLoop=1;jettySize=auto;html=1;entryX=1;entryY=0.5;entryDx=0;entryDy=0;" parent="1" source="eXuaTyJAbWY_H0V2AS7y-99" target="eXuaTyJAbWY_H0V2AS7y-102" edge="1">
          <mxGeometry relative="1" as="geometry" />
        </mxCell>
        <mxCell id="eXuaTyJAbWY_H0V2AS7y-99" value="Teacher Response" style="rounded=0;whiteSpace=wrap;html=1;" parent="1" vertex="1">
          <mxGeometry x="615" y="135" width="120" height="60" as="geometry" />
        </mxCell>
        <mxCell id="eXuaTyJAbWY_H0V2AS7y-100" style="edgeStyle=orthogonalEdgeStyle;rounded=0;orthogonalLoop=1;jettySize=auto;html=1;" parent="1" source="eXuaTyJAbWY_H0V2AS7y-102" edge="1">
          <mxGeometry relative="1" as="geometry">
            <mxPoint x="475" y="275.0000000000002" as="targetPoint" />
          </mxGeometry>
        </mxCell>
        <mxCell id="eXuaTyJAbWY_H0V2AS7y-101" style="edgeStyle=orthogonalEdgeStyle;rounded=0;orthogonalLoop=1;jettySize=auto;html=1;entryX=1;entryY=0.5;entryDx=0;entryDy=0;" parent="1" source="eXuaTyJAbWY_H0V2AS7y-102" target="eXuaTyJAbWY_H0V2AS7y-105" edge="1">
          <mxGeometry relative="1" as="geometry">
            <mxPoint x="370" y="165.00000000000023" as="targetPoint" />
          </mxGeometry>
        </mxCell>
        <mxCell id="eXuaTyJAbWY_H0V2AS7y-102" value="Accept" style="rhombus;whiteSpace=wrap;html=1;" parent="1" vertex="1">
          <mxGeometry x="435" y="125" width="80" height="80" as="geometry" />
        </mxCell>
        <mxCell id="eXuaTyJAbWY_H0V2AS7y-103" value="Notify to Learner with Teacher info&lt;br&gt;Notify to Tacher with learner info" style="rounded=0;whiteSpace=wrap;html=1;" parent="1" vertex="1">
          <mxGeometry x="410" y="275" width="120" height="60" as="geometry" />
        </mxCell>
        <mxCell id="eXuaTyJAbWY_H0V2AS7y-104" value="yes" style="text;html=1;align=center;verticalAlign=middle;resizable=0;points=[];autosize=1;strokeColor=none;fillColor=none;" parent="1" vertex="1">
          <mxGeometry x="470" y="220" width="40" height="30" as="geometry" />
        </mxCell>
        <mxCell id="eXuaTyJAbWY_H0V2AS7y-105" value="Notify to Leaner" style="whiteSpace=wrap;html=1;" parent="1" vertex="1">
          <mxGeometry x="260" y="135" width="120" height="60" as="geometry" />
        </mxCell>
        <mxCell id="eXuaTyJAbWY_H0V2AS7y-106" value="no" style="text;html=1;align=center;verticalAlign=middle;resizable=0;points=[];autosize=1;strokeColor=none;fillColor=none;" parent="1" vertex="1">
          <mxGeometry x="390" y="140" width="40" height="30" as="geometry" />
        </mxCell>
        <mxCell id="eXuaTyJAbWY_H0V2AS7y-107" value="regular flow" style="swimlane;whiteSpace=wrap;html=1;" parent="1" vertex="1">
          <mxGeometry x="-30" y="-40" width="820" height="410" as="geometry" />
        </mxCell>
        <mxCell id="eXuaTyJAbWY_H0V2AS7y-108" value="" style="edgeStyle=orthogonalEdgeStyle;rounded=0;orthogonalLoop=1;jettySize=auto;html=1;" parent="1" source="eXuaTyJAbWY_H0V2AS7y-109" target="eXuaTyJAbWY_H0V2AS7y-111" edge="1">
          <mxGeometry relative="1" as="geometry" />
        </mxCell>
        <mxCell id="eXuaTyJAbWY_H0V2AS7y-109" value="Learner Choose teacher" style="rounded=0;whiteSpace=wrap;html=1;" parent="1" vertex="1">
          <mxGeometry x="1115" y="5" width="120" height="60" as="geometry" />
        </mxCell>
        <mxCell id="eXuaTyJAbWY_H0V2AS7y-110" style="edgeStyle=orthogonalEdgeStyle;rounded=0;orthogonalLoop=1;jettySize=auto;html=1;" parent="1" source="eXuaTyJAbWY_H0V2AS7y-111" edge="1">
          <mxGeometry relative="1" as="geometry">
            <mxPoint x="1375" y="125.00000000000023" as="targetPoint" />
          </mxGeometry>
        </mxCell>
        <mxCell id="eXuaTyJAbWY_H0V2AS7y-111" value="Notify to Teacher" style="rounded=0;whiteSpace=wrap;html=1;" parent="1" vertex="1">
          <mxGeometry x="1315" y="5" width="120" height="60" as="geometry" />
        </mxCell>
        <mxCell id="eXuaTyJAbWY_H0V2AS7y-112" style="edgeStyle=orthogonalEdgeStyle;rounded=0;orthogonalLoop=1;jettySize=auto;html=1;entryX=1;entryY=0.5;entryDx=0;entryDy=0;" parent="1" source="eXuaTyJAbWY_H0V2AS7y-113" target="eXuaTyJAbWY_H0V2AS7y-116" edge="1">
          <mxGeometry relative="1" as="geometry" />
        </mxCell>
        <mxCell id="eXuaTyJAbWY_H0V2AS7y-113" value="Teacher Response" style="rounded=0;whiteSpace=wrap;html=1;" parent="1" vertex="1">
          <mxGeometry x="1315" y="125" width="120" height="60" as="geometry" />
        </mxCell>
        <mxCell id="eXuaTyJAbWY_H0V2AS7y-114" style="edgeStyle=orthogonalEdgeStyle;rounded=0;orthogonalLoop=1;jettySize=auto;html=1;" parent="1" source="eXuaTyJAbWY_H0V2AS7y-116" edge="1">
          <mxGeometry relative="1" as="geometry">
            <mxPoint x="1175" y="265.0000000000002" as="targetPoint" />
          </mxGeometry>
        </mxCell>
        <mxCell id="eXuaTyJAbWY_H0V2AS7y-115" style="edgeStyle=orthogonalEdgeStyle;rounded=0;orthogonalLoop=1;jettySize=auto;html=1;entryX=1;entryY=0.5;entryDx=0;entryDy=0;" parent="1" source="eXuaTyJAbWY_H0V2AS7y-116" target="eXuaTyJAbWY_H0V2AS7y-119" edge="1">
          <mxGeometry relative="1" as="geometry">
            <mxPoint x="1070" y="155.00000000000023" as="targetPoint" />
          </mxGeometry>
        </mxCell>
        <mxCell id="eXuaTyJAbWY_H0V2AS7y-116" value="Accept" style="rhombus;whiteSpace=wrap;html=1;" parent="1" vertex="1">
          <mxGeometry x="1135" y="115" width="80" height="80" as="geometry" />
        </mxCell>
        <mxCell id="eXuaTyJAbWY_H0V2AS7y-117" value="Notify to Learner with Teacher info&lt;br&gt;Notify to Tacher with learner info" style="rounded=0;whiteSpace=wrap;html=1;" parent="1" vertex="1">
          <mxGeometry x="1110" y="265" width="120" height="60" as="geometry" />
        </mxCell>
        <mxCell id="eXuaTyJAbWY_H0V2AS7y-118" value="yes" style="text;html=1;align=center;verticalAlign=middle;resizable=0;points=[];autosize=1;strokeColor=none;fillColor=none;" parent="1" vertex="1">
          <mxGeometry x="1170" y="210" width="40" height="30" as="geometry" />
        </mxCell>
        <mxCell id="eXuaTyJAbWY_H0V2AS7y-119" value="Notify to Leaner" style="whiteSpace=wrap;html=1;" parent="1" vertex="1">
          <mxGeometry x="960" y="125" width="120" height="60" as="geometry" />
        </mxCell>
        <mxCell id="eXuaTyJAbWY_H0V2AS7y-120" value="no" style="text;html=1;align=center;verticalAlign=middle;resizable=0;points=[];autosize=1;strokeColor=none;fillColor=none;" parent="1" vertex="1">
          <mxGeometry x="1090" y="130" width="40" height="30" as="geometry" />
        </mxCell>
        <mxCell id="eXuaTyJAbWY_H0V2AS7y-121" value="request flow" style="swimlane;whiteSpace=wrap;html=1;" parent="1" vertex="1">
          <mxGeometry x="870" y="-40" width="590" height="410" as="geometry" />
        </mxCell>
        <mxCell id="FIKLe-WNXo1RkP2kKP3t-1" value="LectureOverview" style="swimlane;fontStyle=0;childLayout=stackLayout;horizontal=1;startSize=30;horizontalStack=0;resizeParent=1;resizeParentMax=0;resizeLast=0;collapsible=1;marginBottom=0;whiteSpace=wrap;html=1;" vertex="1" parent="1">
          <mxGeometry x="-890" y="830" width="140" height="120" as="geometry" />
        </mxCell>
        <mxCell id="FIKLe-WNXo1RkP2kKP3t-2" value="id" style="text;strokeColor=none;fillColor=none;align=left;verticalAlign=middle;spacingLeft=4;spacingRight=4;overflow=hidden;points=[[0,0.5],[1,0.5]];portConstraint=eastwest;rotatable=0;whiteSpace=wrap;html=1;" vertex="1" parent="FIKLe-WNXo1RkP2kKP3t-1">
          <mxGeometry y="30" width="140" height="30" as="geometry" />
        </mxCell>
        <mxCell id="FIKLe-WNXo1RkP2kKP3t-3" value="name" style="text;strokeColor=none;fillColor=none;align=left;verticalAlign=middle;spacingLeft=4;spacingRight=4;overflow=hidden;points=[[0,0.5],[1,0.5]];portConstraint=eastwest;rotatable=0;whiteSpace=wrap;html=1;" vertex="1" parent="FIKLe-WNXo1RkP2kKP3t-1">
          <mxGeometry y="60" width="140" height="30" as="geometry" />
        </mxCell>
        <mxCell id="FIKLe-WNXo1RkP2kKP3t-4" value="overview" style="text;strokeColor=none;fillColor=none;align=left;verticalAlign=middle;spacingLeft=4;spacingRight=4;overflow=hidden;points=[[0,0.5],[1,0.5]];portConstraint=eastwest;rotatable=0;whiteSpace=wrap;html=1;" vertex="1" parent="FIKLe-WNXo1RkP2kKP3t-1">
          <mxGeometry y="90" width="140" height="30" as="geometry" />
        </mxCell>
        <mxCell id="FIKLe-WNXo1RkP2kKP3t-5" value="" style="shape=link;html=1;rounded=0;" edge="1" parent="1">
          <mxGeometry relative="1" as="geometry">
            <mxPoint x="-360" y="910" as="sourcePoint" />
            <mxPoint x="-750" y="900" as="targetPoint" />
          </mxGeometry>
        </mxCell>
        <mxCell id="FIKLe-WNXo1RkP2kKP3t-6" value="N" style="resizable=0;html=1;align=right;verticalAlign=bottom;" connectable="0" vertex="1" parent="FIKLe-WNXo1RkP2kKP3t-5">
          <mxGeometry x="1" relative="1" as="geometry" />
        </mxCell>
        <mxCell id="FIKLe-WNXo1RkP2kKP3t-7" value="" style="shape=link;html=1;rounded=0;entryX=0.5;entryY=0;entryDx=0;entryDy=0;exitX=0.494;exitY=0.977;exitDx=0;exitDy=0;exitPerimeter=0;" edge="1" parent="1" source="eXuaTyJAbWY_H0V2AS7y-8" target="FIKLe-WNXo1RkP2kKP3t-1">
          <mxGeometry relative="1" as="geometry">
            <mxPoint x="-1130" y="880" as="sourcePoint" />
            <mxPoint x="-488" y="1108" as="targetPoint" />
          </mxGeometry>
        </mxCell>
        <mxCell id="FIKLe-WNXo1RkP2kKP3t-8" value="M" style="resizable=0;html=1;align=left;verticalAlign=bottom;" connectable="0" vertex="1" parent="FIKLe-WNXo1RkP2kKP3t-7">
          <mxGeometry x="-1" relative="1" as="geometry" />
        </mxCell>
        <mxCell id="FIKLe-WNXo1RkP2kKP3t-9" value="N" style="resizable=0;html=1;align=right;verticalAlign=bottom;" connectable="0" vertex="1" parent="FIKLe-WNXo1RkP2kKP3t-7">
          <mxGeometry x="1" relative="1" as="geometry" />
        </mxCell>
      </root>
    </mxGraphModel>
  </diagram>
  <diagram name="Profile" id="KCtIms2r5l8wLm0cJB7Q">
    <mxGraphModel dx="1596" dy="683" grid="1" gridSize="10" guides="1" tooltips="1" connect="1" arrows="1" fold="1" page="1" pageScale="1" pageWidth="827" pageHeight="1169" math="0" shadow="0">
      <root>
        <mxCell id="0" />
        <mxCell id="1" parent="0" />
        <mxCell id="HMMMU3HcAMlLr4I3amXF-1" value="Learner to self" style="swimlane;whiteSpace=wrap;html=1;" parent="1" vertex="1">
          <mxGeometry x="63" y="82" width="330" height="320" as="geometry" />
        </mxCell>
        <mxCell id="HMMMU3HcAMlLr4I3amXF-6" value="Personal Information&amp;nbsp;" style="rounded=0;whiteSpace=wrap;html=1;" parent="HMMMU3HcAMlLr4I3amXF-1" vertex="1">
          <mxGeometry x="105" y="90" width="120" height="60" as="geometry" />
        </mxCell>
        <mxCell id="HMMMU3HcAMlLr4I3amXF-7" value="Posts Management" style="rounded=0;whiteSpace=wrap;html=1;" parent="HMMMU3HcAMlLr4I3amXF-1" vertex="1">
          <mxGeometry x="105" y="170" width="120" height="60" as="geometry" />
        </mxCell>
        <mxCell id="HMMMU3HcAMlLr4I3amXF-2" value="All to teacher" style="swimlane;whiteSpace=wrap;html=1;" parent="1" vertex="1">
          <mxGeometry x="453" y="82" width="330" height="398" as="geometry" />
        </mxCell>
        <mxCell id="HMMMU3HcAMlLr4I3amXF-14" value="Personal Information&amp;nbsp;" style="rounded=0;whiteSpace=wrap;html=1;" parent="HMMMU3HcAMlLr4I3amXF-2" vertex="1">
          <mxGeometry x="105" y="60" width="120" height="60" as="geometry" />
        </mxCell>
        <mxCell id="HMMMU3HcAMlLr4I3amXF-16" value="Certifications" style="rounded=0;whiteSpace=wrap;html=1;" parent="HMMMU3HcAMlLr4I3amXF-2" vertex="1">
          <mxGeometry x="105" y="140" width="120" height="60" as="geometry" />
        </mxCell>
        <mxCell id="HMMMU3HcAMlLr4I3amXF-17" value="Reviews" style="rounded=0;whiteSpace=wrap;html=1;" parent="HMMMU3HcAMlLr4I3amXF-2" vertex="1">
          <mxGeometry x="105" y="220" width="120" height="60" as="geometry" />
        </mxCell>
        <mxCell id="et9xAlOUMlv20gruPdfP-2" value="LectureOverview&lt;br&gt;management" style="rounded=0;whiteSpace=wrap;html=1;" vertex="1" parent="HMMMU3HcAMlLr4I3amXF-2">
          <mxGeometry x="105" y="298" width="120" height="60" as="geometry" />
        </mxCell>
        <mxCell id="HMMMU3HcAMlLr4I3amXF-3" value="Teacher to self" style="swimlane;whiteSpace=wrap;html=1;" parent="1" vertex="1">
          <mxGeometry x="63" y="442" width="330" height="468" as="geometry" />
        </mxCell>
        <mxCell id="HMMMU3HcAMlLr4I3amXF-8" value="Personal Information&amp;nbsp;" style="rounded=0;whiteSpace=wrap;html=1;" parent="HMMMU3HcAMlLr4I3amXF-3" vertex="1">
          <mxGeometry x="105" y="50" width="120" height="60" as="geometry" />
        </mxCell>
        <mxCell id="HMMMU3HcAMlLr4I3amXF-9" value="Posts Management" style="rounded=0;whiteSpace=wrap;html=1;" parent="HMMMU3HcAMlLr4I3amXF-3" vertex="1">
          <mxGeometry x="105" y="130" width="120" height="60" as="geometry" />
        </mxCell>
        <mxCell id="HMMMU3HcAMlLr4I3amXF-10" value="Certification management" style="rounded=0;whiteSpace=wrap;html=1;" parent="HMMMU3HcAMlLr4I3amXF-3" vertex="1">
          <mxGeometry x="105" y="211" width="120" height="60" as="geometry" />
        </mxCell>
        <mxCell id="HMMMU3HcAMlLr4I3amXF-11" value="Reviews management" style="rounded=0;whiteSpace=wrap;html=1;" parent="HMMMU3HcAMlLr4I3amXF-3" vertex="1">
          <mxGeometry x="105" y="291" width="120" height="60" as="geometry" />
        </mxCell>
        <mxCell id="et9xAlOUMlv20gruPdfP-1" value="LectureOverview&lt;br&gt;management" style="rounded=0;whiteSpace=wrap;html=1;" vertex="1" parent="HMMMU3HcAMlLr4I3amXF-3">
          <mxGeometry x="105" y="368" width="120" height="60" as="geometry" />
        </mxCell>
        <mxCell id="HMMMU3HcAMlLr4I3amXF-4" value="Teacher to learner" style="swimlane;whiteSpace=wrap;html=1;" parent="1" vertex="1">
          <mxGeometry x="453" y="530" width="330" height="178" as="geometry" />
        </mxCell>
        <mxCell id="HMMMU3HcAMlLr4I3amXF-5" value="Personal Information" style="rounded=0;whiteSpace=wrap;html=1;" parent="HMMMU3HcAMlLr4I3amXF-4" vertex="1">
          <mxGeometry x="97" y="70" width="120" height="60" as="geometry" />
        </mxCell>
      </root>
    </mxGraphModel>
  </diagram>
  <diagram id="FFkAeEsiq125euux7GnC" name="Views">
    <mxGraphModel dx="2314" dy="1066" grid="1" gridSize="10" guides="1" tooltips="1" connect="1" arrows="1" fold="1" page="1" pageScale="1" pageWidth="850" pageHeight="1100" math="0" shadow="0">
      <root>
        <mxCell id="0" />
        <mxCell id="1" parent="0" />
        <mxCell id="zW_jxyTWISaKLMwNs14V-1" value="Home (post)" style="whiteSpace=wrap;html=1;aspect=fixed;" parent="1" vertex="1">
          <mxGeometry x="130" y="90" width="80" height="80" as="geometry" />
        </mxCell>
        <mxCell id="zW_jxyTWISaKLMwNs14V-2" value="List teacher" style="whiteSpace=wrap;html=1;aspect=fixed;" parent="1" vertex="1">
          <mxGeometry x="300" y="90" width="80" height="80" as="geometry" />
        </mxCell>
        <mxCell id="zW_jxyTWISaKLMwNs14V-3" value="Profile" style="whiteSpace=wrap;html=1;aspect=fixed;" parent="1" vertex="1">
          <mxGeometry x="120" y="240" width="80" height="80" as="geometry" />
        </mxCell>
        <mxCell id="zW_jxyTWISaKLMwNs14V-4" value="Authentication" style="whiteSpace=wrap;html=1;aspect=fixed;" parent="1" vertex="1">
          <mxGeometry x="300" y="240" width="80" height="80" as="geometry" />
        </mxCell>
        <mxCell id="NCvp-vWR6vP4DR6eAbQK-1" value="About" style="whiteSpace=wrap;html=1;aspect=fixed;" parent="1" vertex="1">
          <mxGeometry x="460" y="90" width="80" height="80" as="geometry" />
        </mxCell>
      </root>
    </mxGraphModel>
  </diagram>
</mxfile>
